<svg width="120" height="16" viewBox="0 0 120 16" fill="none" xmlns="http://www.w3.org/2000/svg">
<path d="M5.99231 16C5.05897 16 4.19231 15.8741 3.39231 15.6222C2.59231 15.3704 1.91823 14.9926 1.37009 14.4889C0.821937 13.9852 0.429345 13.3556 0.192308 12.6C-0.0299145 11.8444 -0.0595441 10.963 0.103419 9.95556C0.221937 9.31852 0.347863 8.68148 0.481197 8.04444C0.629345 7.40741 0.777493 6.76296 0.925641 6.11111C1.41453 4.11111 2.29601 2.59259 3.57009 1.55556C4.84416 0.518519 6.56268 0 8.72564 0C9.65897 0 10.5182 0.133333 11.3034 0.4C12.1034 0.651852 12.7775 1.03704 13.3256 1.55556C13.8886 2.07407 14.2812 2.71111 14.5034 3.46667C14.7405 4.22222 14.7701 5.1037 14.5923 6.11111C14.4886 6.76296 14.3627 7.40741 14.2145 8.04444C14.0812 8.68148 13.9405 9.31852 13.7923 9.95556C13.2886 11.9852 12.3997 13.5037 11.1256 14.5111C9.85157 15.5037 8.14046 16 5.99231 16ZM6.2812 12.8C7.0812 12.8 7.7849 12.563 8.39231 12.0889C8.99971 11.6148 9.42934 10.8593 9.6812 9.82222C9.84416 9.17037 9.9849 8.55556 10.1034 7.97778C10.2368 7.4 10.3553 6.8 10.459 6.17778C10.6516 5.14074 10.5627 4.38518 10.1923 3.91111C9.82194 3.43704 9.23675 3.2 8.43675 3.2C7.63675 3.2 6.93305 3.43704 6.32564 3.91111C5.73305 4.38518 5.31083 5.14074 5.05897 6.17778C4.89601 6.8 4.74786 7.4 4.61453 7.97778C4.49601 8.55556 4.37749 9.17037 4.25897 9.82222C4.0812 10.8593 4.17009 11.6148 4.52564 12.0889C4.8812 12.563 5.46638 12.8 6.2812 12.8Z" fill="#FF0420"/>
<path d="M16.9936 15.7778C16.8454 15.7778 16.7269 15.7259 16.638 15.6222C16.5491 15.5185 16.5195 15.3852 16.5491 15.2222L19.6158 0.777778C19.6454 0.614815 19.7269 0.481482 19.8602 0.377778C19.9936 0.274074 20.1343 0.222222 20.2825 0.222222H26.1936C27.0973 0.222222 27.9121 0.325926 28.638 0.533333C29.3788 0.740741 29.9936 1.05926 30.4825 1.48889C30.9713 1.91852 31.3121 2.45926 31.5047 3.11111C31.6973 3.74815 31.7047 4.4963 31.5269 5.35556C31.1565 7.05926 30.401 8.31852 29.2602 9.13333C28.1343 9.94815 26.6158 10.3556 24.7047 10.3556H21.7047L20.6825 15.2222C20.6528 15.3852 20.5714 15.5185 20.438 15.6222C20.3195 15.7259 20.1788 15.7778 20.0158 15.7778H16.9936ZM22.2825 7.28889H24.838C25.4454 7.28889 25.9862 7.12593 26.4602 6.8C26.9491 6.47407 27.2676 5.97778 27.4158 5.31111C27.4899 4.92593 27.5047 4.58519 27.4602 4.28889C27.4158 3.99259 27.2602 3.75556 26.9936 3.57778C26.7417 3.4 26.3491 3.31111 25.8158 3.31111H23.1491L22.2825 7.28889Z" fill="#FF0420"/>
<path d="M36.6808 15.7778C36.5178 15.7778 36.3919 15.7259 36.303 15.6222C36.2141 15.5185 36.1845 15.3852 36.2141 15.2222L38.6808 3.71111H34.7252C34.5771 3.71111 34.4586 3.65926 34.3697 3.55556C34.2808 3.43704 34.2511 3.3037 34.2808 3.15556L34.7919 0.777778C34.8215 0.614815 34.8956 0.481482 35.0141 0.377778C35.1474 0.274074 35.2956 0.222222 35.4585 0.222222H47.4141C47.5771 0.222222 47.6956 0.274074 47.7697 0.377778C47.8586 0.481482 47.8882 0.614815 47.8586 0.777778L47.3474 3.15556C47.3178 3.3037 47.2363 3.43704 47.103 3.55556C46.9845 3.65926 46.8437 3.71111 46.6808 3.71111H42.7252L40.2808 15.2222C40.2511 15.3852 40.1697 15.5185 40.0363 15.6222C39.9178 15.7259 39.7771 15.7778 39.6141 15.7778H36.6808Z" fill="#FF0420"/>
<path d="M48.4829 15.7778C48.3199 15.7778 48.194 15.7259 48.1051 15.6222C48.0162 15.5185 47.9866 15.3852 48.0162 15.2222L51.1051 0.777778C51.1348 0.614815 51.2162 0.481482 51.3496 0.377778C51.4829 0.274074 51.6236 0.222222 51.7718 0.222222H54.7718C54.9199 0.222222 55.0385 0.274074 55.1273 0.377778C55.2162 0.481482 55.2459 0.614815 55.2162 0.777778L52.1273 15.2222C52.0977 15.3852 52.0162 15.5185 51.8829 15.6222C51.7644 15.7259 51.6311 15.7778 51.4829 15.7778H48.4829Z" fill="#FF0420"/>
<path d="M56.9798 15.7778C56.8169 15.7778 56.6909 15.7259 56.6021 15.6222C56.5132 15.5185 56.4835 15.3852 56.5132 15.2222L59.5798 0.777778C59.6095 0.614815 59.6909 0.481482 59.8243 0.377778C59.9576 0.274074 60.1058 0.222222 60.2687 0.222222H62.6687C62.9058 0.222222 63.0687 0.288889 63.1576 0.422222C63.2613 0.540741 63.328 0.637037 63.3576 0.711111L65.7576 7.73333L71.1798 0.711111C71.2243 0.637037 71.3132 0.540741 71.4465 0.422222C71.5946 0.288889 71.7872 0.222222 72.0243 0.222222H74.4243C74.5872 0.222222 74.7132 0.274074 74.802 0.377778C74.8909 0.481482 74.9206 0.614815 74.8909 0.777778L71.8243 15.2222C71.7946 15.3852 71.7132 15.5185 71.5798 15.6222C71.4465 15.7259 71.2983 15.7778 71.1354 15.7778H68.4687C68.3206 15.7778 68.2021 15.7259 68.1132 15.6222C68.0243 15.5185 67.9946 15.3852 68.0243 15.2222L69.7576 7.02222L66.3576 11.5333C66.2539 11.6519 66.128 11.7704 65.9798 11.8889C65.8465 11.9926 65.6761 12.0444 65.4687 12.0444H64.3132C64.1058 12.0444 63.9576 11.9926 63.8687 11.8889C63.7798 11.7852 63.7132 11.6667 63.6687 11.5333L62.0909 6.82222L60.2909 15.2222C60.2613 15.3852 60.1798 15.5185 60.0465 15.6222C59.928 15.7259 59.7946 15.7778 59.6465 15.7778H56.9798Z" fill="#FF0420"/>
<path d="M76.6302 15.7778C76.4673 15.7778 76.3413 15.7259 76.2524 15.6222C76.1636 15.5185 76.1339 15.3852 76.1636 15.2222L79.2524 0.777778C79.2821 0.614815 79.3636 0.481482 79.4969 0.377778C79.6302 0.274074 79.771 0.222222 79.9191 0.222222H82.9191C83.0673 0.222222 83.1858 0.274074 83.2747 0.377778C83.3636 0.481482 83.3932 0.614815 83.3636 0.777778L80.2747 15.2222C80.245 15.3852 80.1636 15.5185 80.0302 15.6222C79.9117 15.7259 79.7784 15.7778 79.6302 15.7778H76.6302Z" fill="#FF0420"/>
<path d="M90.616 16C89.1346 16 87.9197 15.7926 86.9716 15.3778C86.0383 14.963 85.3642 14.4148 84.9494 13.7333C84.5494 13.037 84.4086 12.3037 84.5271 11.5333C84.5568 11.4148 84.616 11.3111 84.7049 11.2222C84.8086 11.1185 84.9271 11.0667 85.0605 11.0667H87.9049C88.1123 11.0667 88.2605 11.1037 88.3494 11.1778C88.4383 11.2519 88.5271 11.3481 88.616 11.4667C88.6753 11.6889 88.7938 11.9037 88.9716 12.1111C89.1494 12.3185 89.3938 12.4889 89.7049 12.6222C90.0309 12.7407 90.4309 12.8 90.9049 12.8C91.7642 12.8 92.4531 12.6667 92.9716 12.4C93.4901 12.1333 93.7938 11.7704 93.8827 11.3111C93.9716 10.9852 93.9123 10.7185 93.7049 10.5111C93.5123 10.2889 93.1642 10.0963 92.6605 9.93333C92.1716 9.75556 91.5123 9.57778 90.6827 9.4C89.6012 9.16296 88.7123 8.83704 88.016 8.42222C87.3197 7.99259 86.8309 7.45185 86.5494 6.8C86.2827 6.13333 86.2457 5.34074 86.4383 4.42222C86.7346 3.05926 87.4679 1.98519 88.6383 1.2C89.8086 0.400001 91.3271 0 93.1938 0C94.1568 0 95.0086 0.133333 95.7494 0.4C96.5049 0.666667 97.1346 1.02222 97.6383 1.46667C98.142 1.91111 98.5049 2.38518 98.7271 2.88889C98.9494 3.37778 99.0234 3.85926 98.9494 4.33333C98.9346 4.45185 98.8753 4.56296 98.7716 4.66667C98.6679 4.75556 98.5494 4.8 98.416 4.8H95.4383C95.2901 4.8 95.1568 4.77037 95.0383 4.71111C94.9346 4.65185 94.8457 4.55556 94.7716 4.42222C94.7716 4.0963 94.6012 3.81481 94.2605 3.57778C93.9197 3.32593 93.4679 3.2 92.9049 3.2C92.2679 3.2 91.7346 3.31852 91.3049 3.55556C90.8753 3.77778 90.6086 4.12593 90.5049 4.6C90.4308 4.8963 90.4679 5.15556 90.616 5.37778C90.779 5.6 91.0753 5.79259 91.5049 5.95555C91.9494 6.11852 92.5568 6.28889 93.3271 6.46667C94.6309 6.71852 95.6531 7.05926 96.3938 7.48889C97.1346 7.9037 97.6309 8.42963 97.8827 9.06667C98.1494 9.7037 98.1864 10.4815 97.9938 11.4C97.6679 12.9111 96.8753 14.0593 95.616 14.8444C94.3716 15.6148 92.7049 16 90.616 16Z" fill="#FF0420"/>
<path d="M101.111 15.7778C100.948 15.7778 100.822 15.7259 100.733 15.6222C100.644 15.5185 100.614 15.3852 100.644 15.2222L103.711 0.777778C103.74 0.614815 103.822 0.481482 103.955 0.377778C104.088 0.274074 104.236 0.222222 104.399 0.222222H106.799C107.036 0.222222 107.199 0.288889 107.288 0.422222C107.392 0.540741 107.459 0.637037 107.488 0.711111L109.888 7.73333L115.311 0.711111C115.355 0.637037 115.444 0.540741 115.577 0.422222C115.725 0.288889 115.918 0.222222 116.155 0.222222H118.555C118.718 0.222222 118.844 0.274074 118.933 0.377778C119.022 0.481482 119.051 0.614815 119.022 0.777778L115.955 15.2222C115.925 15.3852 115.844 15.5185 115.711 15.6222C115.577 15.7259 115.429 15.7778 115.266 15.7778H112.599C112.451 15.7778 112.333 15.7259 112.244 15.6222C112.155 15.5185 112.125 15.3852 112.155 15.2222L113.888 7.02222L110.488 11.5333C110.385 11.6519 110.259 11.7704 110.111 11.8889C109.977 11.9926 109.807 12.0444 109.599 12.0444H108.444C108.236 12.0444 108.088 11.9926 107.999 11.8889C107.911 11.7852 107.844 11.6667 107.799 11.5333L106.222 6.82222L104.422 15.2222C104.392 15.3852 104.311 15.5185 104.177 15.6222C104.059 15.7259 103.925 15.7778 103.777 15.7778H101.111Z" fill="#FF0420"/>
</svg>
