<svg xmlns="http://www.w3.org/2000/svg" width="100%" viewBox="0 0 141 32" fill="none" class="footer-logo"><g clip-path="url(#clip0_2022_3591)"><path fill-rule="evenodd" clip-rule="evenodd" d="M86.093 0.418213H86.3716H89.2853H89.5641V0.709402V16.1269V19.8231V24.389V24.6803H89.2853H86.3716H86.093V24.389V0.709402V0.418213ZM29.4529 21.382V8.64729H33.147V5.33742H29.1518C29.3871 5.03061 29.575 4.68744 29.7094 4.3202C29.9601 3.65435 30.0938 2.80214 30.081 1.6568V0.418294H26.7361V1.6995C26.7584 2.42669 26.6176 3.14925 26.3255 3.80966C25.8887 4.74534 24.9578 5.78004 22.9343 6.27699L22.7188 6.33135V8.64729H25.9483V22.2517C25.9503 22.8952 26.1956 23.512 26.6311 23.9674C27.0666 24.4226 27.6568 24.6796 28.2729 24.682H33.2008V21.382H29.4548H29.4529ZM57.9578 8.55023C59.3068 6.53907 61.0982 5.36265 63.2648 5.36265H64.9966V8.88024H62.884C61.4049 8.88024 60.2155 9.38304 59.3737 10.443C58.5319 11.5029 58.0285 13.1568 58.0285 15.5116V24.682H54.4867V5.36265H57.9578V8.55023ZM133.522 5.36265H136.909L137.311 5.37624L137.164 5.7645L128.319 29.7196L128.103 29.6323L128.129 29.644L128.315 29.7196C128.065 30.3398 127.649 30.8711 127.116 31.2499C126.584 31.6287 125.958 31.8387 125.314 31.855H121.393V28.5899H125.193L126.784 24.387L119.851 5.75091L119.704 5.36265H123.606L123.674 5.55678L128.551 19.7901L133.457 5.55678L133.522 5.36265ZM47.4495 5.36265H47.7284H50.9543V24.6879H47.6225V22.3041C46.3069 24.2182 44.3723 25.1229 42.0032 25.1229C39.5912 25.1229 37.943 24.3852 36.9321 23.1001C35.9212 21.8149 35.5496 20.0212 35.5496 17.9809V5.36265H39.0561V18.3361C39.0561 19.4155 39.3812 20.2793 39.9499 20.8714C40.5185 21.4635 41.3528 21.8149 42.4194 21.8149C44.1402 21.8149 45.3815 21.2189 46.2046 20.2405C47.0278 19.2621 47.4495 17.8702 47.4495 16.2337V5.36265ZM110.839 4.92776C108.217 4.92776 106.056 5.9372 104.554 7.72316C103.053 9.50913 102.233 12.0328 102.233 15.0398C102.233 18.0468 103.083 20.5879 104.608 22.3564C106.134 24.125 108.325 25.1168 110.943 25.1168C113.026 25.1168 114.815 24.4917 116.214 23.3405C117.614 22.1895 118.604 20.5297 119.121 18.4875L119.214 18.1206H115.603L115.536 18.3147C114.741 20.6034 113.104 21.8556 110.943 21.8556C109.389 21.8556 108.193 21.246 107.342 20.2249C106.537 19.2543 106.032 17.907 105.846 16.3133H119.24L119.268 16.0551C119.298 15.7189 119.309 15.3812 119.303 15.0437C119.303 12.0405 118.519 9.51105 117.056 7.72899C115.594 5.9469 113.461 4.92776 110.839 4.92776ZM105.968 12.9723C106.216 11.6135 106.728 10.4351 107.488 9.59649C107.919 9.12562 108.439 8.75413 109.015 8.50602C109.591 8.25793 110.21 8.13871 110.833 8.15607C111.426 8.14066 112.015 8.25245 112.565 8.4845C113.115 8.71658 113.613 9.06398 114.029 9.50523C114.791 10.3186 115.33 11.4931 115.598 12.9723H105.968ZM76.4804 4.92776C74.1112 4.92776 72.1769 5.83238 70.8613 7.74647V5.36258H67.5295V24.682H71.034V13.811C71.034 12.1745 71.4558 10.7826 72.2791 9.80226C73.1023 8.82192 74.3435 8.22984 76.0642 8.22984C77.1308 8.22984 77.9653 8.5812 78.5338 9.17328C79.1024 9.76538 79.4275 10.6292 79.4275 11.7086V24.6841H82.934V12.0658C82.934 10.0275 82.5623 8.23373 81.5515 6.94862C80.5406 5.6635 78.8924 4.92776 76.4804 4.92776ZM103.28 5.41249L94.0752 15.0336L103.274 24.6496L98.6286 24.6393L91.9084 17.6153C91.2539 16.9307 90.886 16.0024 90.886 15.0344C90.886 14.0665 91.2539 13.1381 91.9084 12.4536L98.6449 5.41249H103.28Z" fill="#ffffff"></path><path d="M7.93314 11.5727L14.0449 25.5744H0.410156L6.52188 11.5727C6.58394 11.4315 6.68338 11.3119 6.80845 11.2281C6.93351 11.1442 7.07896 11.0996 7.2275 11.0996C7.37605 11.0996 7.52148 11.1442 7.64655 11.2281C7.77162 11.3119 7.87108 11.4315 7.93314 11.5727Z" fill="#ffffff"></path><path d="M7.22724 9.40254C9.59854 9.40254 11.5209 7.39133 11.5209 4.91039C11.5209 2.42943 9.59854 0.418213 7.22724 0.418213C4.85591 0.418213 2.93359 2.42943 2.93359 4.91039C2.93359 7.39133 4.85591 9.40254 7.22724 9.40254Z" fill="#ffffff"></path></g><defs><clipPath id="clip0_2022_3591"><rect width="140.584" height="31.5676" fill="#ffffff" transform="translate(0.410156 0.418213)"></rect></clipPath></defs></svg>
